<svg xmlns="http://www.w3.org/2000/svg" viewBox="0 0 120 160" fill="none" class="w-full h-auto">
  <!-- Teardrop (outline so visible on white) -->
  <path d="M60 72 L52 110 Q60 120 68 110 Z" fill="none" stroke="currentColor" stroke-width="1.5"/>
  <!-- Body segments -->
  <path d="M60 28 L60 72" stroke="currentColor" stroke-width="6" stroke-linecap="round"/>
  <path d="M60 38 L60 72" stroke="currentColor" stroke-width="4" stroke-linecap="round" opacity="0.7"/>
  <!-- Head -->
  <ellipse cx="60" cy="22" rx="10" ry="8" fill="currentColor"/>
  <!-- Antennae -->
  <path d="M52 16 Q48 8 50 4 M68 16 Q72 8 70 4" stroke="currentColor" stroke-width="1.5" stroke-linecap="round" fill="none"/>
  <!-- Wings (left) -->
  <path d="M48 32 Q28 48 32 72 Q42 58 52 38 Z" fill="currentColor" opacity="0.85"/>
  <!-- Wings (right) -->
  <path d="M72 32 Q92 48 88 72 Q78 58 68 38 Z" fill="currentColor" opacity="0.85"/>
  <!-- Legs -->
  <path d="M48 50 L38 62 M60 55 L60 68 M72 50 L82 62" stroke="currentColor" stroke-width="2" stroke-linecap="round"/>
</svg>
